<mxfile host="app.diagrams.net" modified="2023-02-24T00:34:03.817Z" agent="5.0 (Macintosh; Intel Mac OS X 10_15_7) AppleWebKit/605.1.15 (KHTML, like Gecko) Version/16.3 Safari/605.1.15" etag="YibeOJ3M6Y102Poih-2c" version="20.8.23" type="github">
  <diagram name="Page-1" id="Hb8jT13U7dK3vNpKudgU">
    <mxGraphModel dx="1853" dy="621" grid="1" gridSize="10" guides="1" tooltips="1" connect="1" arrows="1" fold="1" page="1" pageScale="1" pageWidth="827" pageHeight="1169" math="0" shadow="0">
      <root>
        <mxCell id="0" />
        <mxCell id="1" parent="0" />
        <mxCell id="pVPWwBX25Paq45T395zx-11" value="" style="group" parent="1" vertex="1" connectable="0">
          <mxGeometry x="-250" y="100" width="280" height="140" as="geometry" />
        </mxCell>
        <mxCell id="pVPWwBX25Paq45T395zx-3" value="Sub-item" style="rounded=0;whiteSpace=wrap;html=1;" parent="pVPWwBX25Paq45T395zx-11" vertex="1">
          <mxGeometry x="80" y="60" width="120" height="60" as="geometry" />
        </mxCell>
        <mxCell id="pVPWwBX25Paq45T395zx-4" value="sub-itemID" style="ellipse;whiteSpace=wrap;html=1;" parent="pVPWwBX25Paq45T395zx-11" vertex="1">
          <mxGeometry width="80" height="40" as="geometry" />
        </mxCell>
        <mxCell id="pVPWwBX25Paq45T395zx-6" value="retailPrice" style="ellipse;whiteSpace=wrap;html=1;" parent="pVPWwBX25Paq45T395zx-11" vertex="1">
          <mxGeometry x="100" width="80" height="40" as="geometry" />
        </mxCell>
        <mxCell id="pVPWwBX25Paq45T395zx-7" value="quanityLeft" style="ellipse;whiteSpace=wrap;html=1;" parent="pVPWwBX25Paq45T395zx-11" vertex="1">
          <mxGeometry x="200" width="80" height="40" as="geometry" />
        </mxCell>
        <mxCell id="pVPWwBX25Paq45T395zx-8" value="" style="endArrow=none;html=1;rounded=0;exitX=0.5;exitY=1;exitDx=0;exitDy=0;entryX=0;entryY=0;entryDx=0;entryDy=0;" parent="pVPWwBX25Paq45T395zx-11" source="pVPWwBX25Paq45T395zx-4" target="pVPWwBX25Paq45T395zx-3" edge="1">
          <mxGeometry width="50" height="50" relative="1" as="geometry">
            <mxPoint x="210" y="20" as="sourcePoint" />
            <mxPoint x="260" y="-30" as="targetPoint" />
          </mxGeometry>
        </mxCell>
        <mxCell id="pVPWwBX25Paq45T395zx-9" value="" style="endArrow=none;html=1;rounded=0;exitX=0.5;exitY=1;exitDx=0;exitDy=0;" parent="pVPWwBX25Paq45T395zx-11" source="pVPWwBX25Paq45T395zx-6" target="pVPWwBX25Paq45T395zx-3" edge="1">
          <mxGeometry width="50" height="50" relative="1" as="geometry">
            <mxPoint x="210" y="20" as="sourcePoint" />
            <mxPoint x="260" y="-30" as="targetPoint" />
          </mxGeometry>
        </mxCell>
        <mxCell id="pVPWwBX25Paq45T395zx-10" value="" style="endArrow=none;html=1;rounded=0;exitX=1;exitY=0;exitDx=0;exitDy=0;entryX=0.5;entryY=1;entryDx=0;entryDy=0;" parent="pVPWwBX25Paq45T395zx-11" source="pVPWwBX25Paq45T395zx-3" target="pVPWwBX25Paq45T395zx-7" edge="1">
          <mxGeometry width="50" height="50" relative="1" as="geometry">
            <mxPoint x="210" y="20" as="sourcePoint" />
            <mxPoint x="260" y="-30" as="targetPoint" />
          </mxGeometry>
        </mxCell>
        <mxCell id="0UYlGUulBKd7WWGCyMar-32" value="" style="group" parent="1" vertex="1" connectable="0">
          <mxGeometry x="-760.0000000000001" y="560" width="430" height="245" as="geometry" />
        </mxCell>
        <mxCell id="0UYlGUulBKd7WWGCyMar-1" value="Customer" style="rounded=0;whiteSpace=wrap;html=1;" parent="0UYlGUulBKd7WWGCyMar-32" vertex="1">
          <mxGeometry x="175" y="60" width="120" height="60" as="geometry" />
        </mxCell>
        <mxCell id="0UYlGUulBKd7WWGCyMar-2" value="&lt;u&gt;customerID&lt;/u&gt;" style="ellipse;whiteSpace=wrap;html=1;" parent="0UYlGUulBKd7WWGCyMar-32" vertex="1">
          <mxGeometry x="100" y="10" width="80" height="45" as="geometry" />
        </mxCell>
        <mxCell id="0UYlGUulBKd7WWGCyMar-3" value="cusName" style="ellipse;whiteSpace=wrap;html=1;" parent="0UYlGUulBKd7WWGCyMar-32" vertex="1">
          <mxGeometry x="70" y="70" width="70" height="40" as="geometry" />
        </mxCell>
        <mxCell id="0UYlGUulBKd7WWGCyMar-5" value="cusAddress" style="ellipse;whiteSpace=wrap;html=1;" parent="0UYlGUulBKd7WWGCyMar-32" vertex="1">
          <mxGeometry x="210" y="140" width="70" height="40" as="geometry" />
        </mxCell>
        <mxCell id="0UYlGUulBKd7WWGCyMar-6" value="cusPhone" style="ellipse;whiteSpace=wrap;html=1;" parent="0UYlGUulBKd7WWGCyMar-32" vertex="1">
          <mxGeometry x="330" y="60" width="80" height="40" as="geometry" />
        </mxCell>
        <mxCell id="0UYlGUulBKd7WWGCyMar-8" value="" style="endArrow=none;html=1;rounded=0;exitX=1;exitY=0.5;exitDx=0;exitDy=0;entryX=0;entryY=0.5;entryDx=0;entryDy=0;" parent="0UYlGUulBKd7WWGCyMar-32" source="0UYlGUulBKd7WWGCyMar-3" target="0UYlGUulBKd7WWGCyMar-1" edge="1">
          <mxGeometry width="50" height="50" relative="1" as="geometry">
            <mxPoint x="120" y="-70" as="sourcePoint" />
            <mxPoint x="170" y="-120" as="targetPoint" />
          </mxGeometry>
        </mxCell>
        <mxCell id="0UYlGUulBKd7WWGCyMar-10" value="" style="endArrow=none;html=1;rounded=0;exitX=0.5;exitY=1;exitDx=0;exitDy=0;" parent="0UYlGUulBKd7WWGCyMar-32" source="0UYlGUulBKd7WWGCyMar-2" target="0UYlGUulBKd7WWGCyMar-1" edge="1">
          <mxGeometry width="50" height="50" relative="1" as="geometry">
            <mxPoint x="120" y="-70" as="sourcePoint" />
            <mxPoint x="170" y="-120" as="targetPoint" />
          </mxGeometry>
        </mxCell>
        <mxCell id="0UYlGUulBKd7WWGCyMar-12" value="" style="endArrow=none;html=1;rounded=0;exitX=0.5;exitY=0;exitDx=0;exitDy=0;entryX=0.5;entryY=1;entryDx=0;entryDy=0;" parent="0UYlGUulBKd7WWGCyMar-32" source="0UYlGUulBKd7WWGCyMar-5" target="0UYlGUulBKd7WWGCyMar-1" edge="1">
          <mxGeometry width="50" height="50" relative="1" as="geometry">
            <mxPoint x="120" y="-70" as="sourcePoint" />
            <mxPoint x="170" y="-120" as="targetPoint" />
          </mxGeometry>
        </mxCell>
        <mxCell id="0UYlGUulBKd7WWGCyMar-13" value="" style="endArrow=none;html=1;rounded=0;entryX=1;entryY=0.5;entryDx=0;entryDy=0;exitX=0;exitY=1;exitDx=0;exitDy=0;" parent="0UYlGUulBKd7WWGCyMar-32" source="0UYlGUulBKd7WWGCyMar-6" target="0UYlGUulBKd7WWGCyMar-1" edge="1">
          <mxGeometry width="50" height="50" relative="1" as="geometry">
            <mxPoint x="340" y="90" as="sourcePoint" />
            <mxPoint x="170" y="-120" as="targetPoint" />
          </mxGeometry>
        </mxCell>
        <mxCell id="0UYlGUulBKd7WWGCyMar-14" value="firstName" style="ellipse;whiteSpace=wrap;html=1;" parent="0UYlGUulBKd7WWGCyMar-32" vertex="1">
          <mxGeometry y="120" width="70" height="30" as="geometry" />
        </mxCell>
        <mxCell id="0UYlGUulBKd7WWGCyMar-16" value="lastName" style="ellipse;whiteSpace=wrap;html=1;" parent="0UYlGUulBKd7WWGCyMar-32" vertex="1">
          <mxGeometry x="70" y="130" width="70" height="30" as="geometry" />
        </mxCell>
        <mxCell id="0UYlGUulBKd7WWGCyMar-17" value="" style="endArrow=none;html=1;rounded=0;exitX=0.5;exitY=0;exitDx=0;exitDy=0;entryX=0;entryY=0.5;entryDx=0;entryDy=0;" parent="0UYlGUulBKd7WWGCyMar-32" source="0UYlGUulBKd7WWGCyMar-14" target="0UYlGUulBKd7WWGCyMar-3" edge="1">
          <mxGeometry width="50" height="50" relative="1" as="geometry">
            <mxPoint x="120" y="-70" as="sourcePoint" />
            <mxPoint x="170" y="-120" as="targetPoint" />
          </mxGeometry>
        </mxCell>
        <mxCell id="0UYlGUulBKd7WWGCyMar-18" value="" style="endArrow=none;html=1;rounded=0;entryX=0.5;entryY=1;entryDx=0;entryDy=0;" parent="0UYlGUulBKd7WWGCyMar-32" source="0UYlGUulBKd7WWGCyMar-16" target="0UYlGUulBKd7WWGCyMar-3" edge="1">
          <mxGeometry width="50" height="50" relative="1" as="geometry">
            <mxPoint x="120" y="-70" as="sourcePoint" />
            <mxPoint x="170" y="-120" as="targetPoint" />
          </mxGeometry>
        </mxCell>
        <mxCell id="0UYlGUulBKd7WWGCyMar-19" value="street" style="ellipse;whiteSpace=wrap;html=1;" parent="0UYlGUulBKd7WWGCyMar-32" vertex="1">
          <mxGeometry x="120" y="180" width="60" height="40" as="geometry" />
        </mxCell>
        <mxCell id="0UYlGUulBKd7WWGCyMar-20" value="city" style="ellipse;whiteSpace=wrap;html=1;" parent="0UYlGUulBKd7WWGCyMar-32" vertex="1">
          <mxGeometry x="190" y="195" width="60" height="40" as="geometry" />
        </mxCell>
        <mxCell id="0UYlGUulBKd7WWGCyMar-21" value="state" style="ellipse;whiteSpace=wrap;html=1;" parent="0UYlGUulBKd7WWGCyMar-32" vertex="1">
          <mxGeometry x="280" y="205" width="60" height="40" as="geometry" />
        </mxCell>
        <mxCell id="0UYlGUulBKd7WWGCyMar-23" value="zipcode" style="ellipse;whiteSpace=wrap;html=1;" parent="0UYlGUulBKd7WWGCyMar-32" vertex="1">
          <mxGeometry x="310" y="155" width="60" height="40" as="geometry" />
        </mxCell>
        <mxCell id="0UYlGUulBKd7WWGCyMar-24" value="" style="endArrow=none;html=1;rounded=0;exitX=0;exitY=0;exitDx=0;exitDy=0;entryX=1;entryY=1;entryDx=0;entryDy=0;" parent="0UYlGUulBKd7WWGCyMar-32" source="0UYlGUulBKd7WWGCyMar-21" target="0UYlGUulBKd7WWGCyMar-5" edge="1">
          <mxGeometry width="50" height="50" relative="1" as="geometry">
            <mxPoint x="120" y="130" as="sourcePoint" />
            <mxPoint x="270" y="180" as="targetPoint" />
          </mxGeometry>
        </mxCell>
        <mxCell id="0UYlGUulBKd7WWGCyMar-25" value="" style="endArrow=none;html=1;rounded=0;exitX=0.5;exitY=0;exitDx=0;exitDy=0;entryX=0.5;entryY=1;entryDx=0;entryDy=0;" parent="0UYlGUulBKd7WWGCyMar-32" source="0UYlGUulBKd7WWGCyMar-20" target="0UYlGUulBKd7WWGCyMar-5" edge="1">
          <mxGeometry width="50" height="50" relative="1" as="geometry">
            <mxPoint x="120" y="130" as="sourcePoint" />
            <mxPoint x="170" y="80" as="targetPoint" />
          </mxGeometry>
        </mxCell>
        <mxCell id="0UYlGUulBKd7WWGCyMar-26" value="" style="endArrow=none;html=1;rounded=0;entryX=0;entryY=0.5;entryDx=0;entryDy=0;" parent="0UYlGUulBKd7WWGCyMar-32" source="0UYlGUulBKd7WWGCyMar-19" target="0UYlGUulBKd7WWGCyMar-5" edge="1">
          <mxGeometry width="50" height="50" relative="1" as="geometry">
            <mxPoint x="120" y="130" as="sourcePoint" />
            <mxPoint x="170" y="80" as="targetPoint" />
          </mxGeometry>
        </mxCell>
        <mxCell id="0UYlGUulBKd7WWGCyMar-27" value="" style="endArrow=none;html=1;rounded=0;exitX=0;exitY=0.5;exitDx=0;exitDy=0;entryX=1;entryY=0.5;entryDx=0;entryDy=0;" parent="0UYlGUulBKd7WWGCyMar-32" source="0UYlGUulBKd7WWGCyMar-23" target="0UYlGUulBKd7WWGCyMar-5" edge="1">
          <mxGeometry width="50" height="50" relative="1" as="geometry">
            <mxPoint x="120" y="130" as="sourcePoint" />
            <mxPoint x="170" y="80" as="targetPoint" />
          </mxGeometry>
        </mxCell>
        <mxCell id="0UYlGUulBKd7WWGCyMar-28" value="areaCode" style="ellipse;whiteSpace=wrap;html=1;" parent="0UYlGUulBKd7WWGCyMar-32" vertex="1">
          <mxGeometry x="290" y="15" width="70" height="40" as="geometry" />
        </mxCell>
        <mxCell id="0UYlGUulBKd7WWGCyMar-29" value="number" style="ellipse;whiteSpace=wrap;html=1;" parent="0UYlGUulBKd7WWGCyMar-32" vertex="1">
          <mxGeometry x="360" width="70" height="50" as="geometry" />
        </mxCell>
        <mxCell id="0UYlGUulBKd7WWGCyMar-30" value="" style="endArrow=none;html=1;rounded=0;exitX=0.5;exitY=1;exitDx=0;exitDy=0;entryX=0;entryY=0.5;entryDx=0;entryDy=0;" parent="0UYlGUulBKd7WWGCyMar-32" source="0UYlGUulBKd7WWGCyMar-28" target="0UYlGUulBKd7WWGCyMar-6" edge="1">
          <mxGeometry width="50" height="50" relative="1" as="geometry">
            <mxPoint x="120" y="130" as="sourcePoint" />
            <mxPoint x="170" y="80" as="targetPoint" />
          </mxGeometry>
        </mxCell>
        <mxCell id="0UYlGUulBKd7WWGCyMar-31" value="" style="endArrow=none;html=1;rounded=0;exitX=0.5;exitY=1;exitDx=0;exitDy=0;" parent="0UYlGUulBKd7WWGCyMar-32" source="0UYlGUulBKd7WWGCyMar-29" target="0UYlGUulBKd7WWGCyMar-6" edge="1">
          <mxGeometry width="50" height="50" relative="1" as="geometry">
            <mxPoint x="120" y="130" as="sourcePoint" />
            <mxPoint x="170" y="80" as="targetPoint" />
          </mxGeometry>
        </mxCell>
        <mxCell id="_CNHDKaY29BKCdkUsdy_-1" value="Employee&lt;br&gt;" style="rounded=0;whiteSpace=wrap;html=1;movable=0;resizable=0;rotatable=0;deletable=0;editable=0;locked=1;connectable=0;" parent="1" vertex="1">
          <mxGeometry x="-725.9420289855072" y="104.88372093023254" width="100.8695652173913" height="47.44186046511627" as="geometry" />
        </mxCell>
        <mxCell id="_CNHDKaY29BKCdkUsdy_-2" value="&lt;u&gt;SSN&lt;/u&gt;" style="ellipse;whiteSpace=wrap;html=1;movable=0;resizable=0;rotatable=0;deletable=0;editable=0;locked=1;connectable=0;" parent="1" vertex="1">
          <mxGeometry x="-805.7971014492754" y="128.60465116279067" width="46.231884057971016" height="31.627906976744185" as="geometry" />
        </mxCell>
        <mxCell id="_CNHDKaY29BKCdkUsdy_-3" value="salary&lt;br&gt;" style="ellipse;whiteSpace=wrap;html=1;movable=0;resizable=0;rotatable=0;deletable=0;editable=0;locked=1;connectable=0;" parent="1" vertex="1">
          <mxGeometry x="-759.5652173913044" y="33.72093023255813" width="50.43478260869565" height="31.627906976744185" as="geometry" />
        </mxCell>
        <mxCell id="_CNHDKaY29BKCdkUsdy_-4" value="name" style="ellipse;whiteSpace=wrap;html=1;movable=0;resizable=0;rotatable=0;deletable=0;editable=0;locked=1;connectable=0;" parent="1" vertex="1">
          <mxGeometry x="-698.6231884057971" y="33.72093023255813" width="48.333333333333336" height="31.627906976744185" as="geometry" />
        </mxCell>
        <mxCell id="_CNHDKaY29BKCdkUsdy_-5" value="telephone &lt;br&gt;number" style="ellipse;whiteSpace=wrap;html=1;movable=0;resizable=0;rotatable=0;deletable=0;editable=0;locked=1;connectable=0;" parent="1" vertex="1">
          <mxGeometry x="-633.4782608695652" y="33.72093023255813" width="75.65217391304347" height="39.53488372093023" as="geometry" />
        </mxCell>
        <mxCell id="_CNHDKaY29BKCdkUsdy_-6" value="address" style="ellipse;whiteSpace=wrap;html=1;movable=0;resizable=0;rotatable=0;deletable=0;editable=0;locked=1;connectable=0;" parent="1" vertex="1">
          <mxGeometry x="-810" y="73.25581395348837" width="58.84057971014493" height="31.627906976744185" as="geometry" />
        </mxCell>
        <mxCell id="_CNHDKaY29BKCdkUsdy_-26" value="" style="endArrow=none;html=1;rounded=0;exitX=1;exitY=0.5;exitDx=0;exitDy=0;entryX=0;entryY=0.5;entryDx=0;entryDy=0;movable=0;resizable=0;rotatable=0;deletable=0;editable=0;locked=1;connectable=0;" parent="1" source="_CNHDKaY29BKCdkUsdy_-2" target="_CNHDKaY29BKCdkUsdy_-1" edge="1">
          <mxGeometry width="50" height="50" relative="1" as="geometry">
            <mxPoint x="-381.3043478260869" y="231.39534883720927" as="sourcePoint" />
            <mxPoint x="-339.27536231884056" y="191.86046511627907" as="targetPoint" />
          </mxGeometry>
        </mxCell>
        <mxCell id="_CNHDKaY29BKCdkUsdy_-27" value="" style="endArrow=none;html=1;rounded=0;exitX=1;exitY=0.5;exitDx=0;exitDy=0;movable=0;resizable=0;rotatable=0;deletable=0;editable=0;locked=1;connectable=0;" parent="1" source="_CNHDKaY29BKCdkUsdy_-6" target="_CNHDKaY29BKCdkUsdy_-1" edge="1">
          <mxGeometry width="50" height="50" relative="1" as="geometry">
            <mxPoint x="-381.3043478260869" y="231.39534883720927" as="sourcePoint" />
            <mxPoint x="-339.27536231884056" y="191.86046511627907" as="targetPoint" />
          </mxGeometry>
        </mxCell>
        <mxCell id="_CNHDKaY29BKCdkUsdy_-29" value="" style="endArrow=none;html=1;rounded=0;movable=0;resizable=0;rotatable=0;deletable=0;editable=0;locked=1;connectable=0;" parent="1" source="_CNHDKaY29BKCdkUsdy_-3" target="_CNHDKaY29BKCdkUsdy_-1" edge="1">
          <mxGeometry width="50" height="50" relative="1" as="geometry">
            <mxPoint x="-381.3043478260869" y="231.39534883720927" as="sourcePoint" />
            <mxPoint x="-339.27536231884056" y="191.86046511627907" as="targetPoint" />
          </mxGeometry>
        </mxCell>
        <mxCell id="_CNHDKaY29BKCdkUsdy_-30" value="" style="endArrow=none;html=1;rounded=0;exitX=0.5;exitY=1;exitDx=0;exitDy=0;entryX=0.5;entryY=0;entryDx=0;entryDy=0;movable=0;resizable=0;rotatable=0;deletable=0;editable=0;locked=1;connectable=0;" parent="1" source="_CNHDKaY29BKCdkUsdy_-4" target="_CNHDKaY29BKCdkUsdy_-1" edge="1">
          <mxGeometry width="50" height="50" relative="1" as="geometry">
            <mxPoint x="-381.3043478260869" y="231.39534883720927" as="sourcePoint" />
            <mxPoint x="-339.27536231884056" y="191.86046511627907" as="targetPoint" />
          </mxGeometry>
        </mxCell>
        <mxCell id="_CNHDKaY29BKCdkUsdy_-31" value="" style="endArrow=none;html=1;rounded=0;entryX=0.683;entryY=0;entryDx=0;entryDy=0;entryPerimeter=0;exitX=0.5;exitY=1;exitDx=0;exitDy=0;movable=0;resizable=0;rotatable=0;deletable=0;editable=0;locked=1;connectable=0;" parent="1" source="_CNHDKaY29BKCdkUsdy_-5" target="_CNHDKaY29BKCdkUsdy_-1" edge="1">
          <mxGeometry width="50" height="50" relative="1" as="geometry">
            <mxPoint x="-608.2608695652174" y="73.25581395348837" as="sourcePoint" />
            <mxPoint x="-339.27536231884056" y="191.86046511627907" as="targetPoint" />
          </mxGeometry>
        </mxCell>
        <mxCell id="_CNHDKaY29BKCdkUsdy_-32" value="Category" style="rounded=0;whiteSpace=wrap;html=1;movable=0;resizable=0;rotatable=0;deletable=0;editable=0;locked=1;connectable=0;" parent="1" vertex="1">
          <mxGeometry x="-524.2028985507247" y="223.4883720930232" width="100.8695652173913" height="47.44186046511627" as="geometry" />
        </mxCell>
        <mxCell id="_CNHDKaY29BKCdkUsdy_-33" value="&lt;u&gt;categoryID&lt;/u&gt;" style="ellipse;whiteSpace=wrap;html=1;movable=0;resizable=0;rotatable=0;deletable=0;editable=0;locked=1;connectable=0;" parent="1" vertex="1">
          <mxGeometry x="-524.2028985507247" y="294.6511627906977" width="75.65217391304347" height="47.44186046511627" as="geometry" />
        </mxCell>
        <mxCell id="_CNHDKaY29BKCdkUsdy_-34" value="categoryName" style="ellipse;whiteSpace=wrap;html=1;movable=0;resizable=0;rotatable=0;deletable=0;editable=0;locked=1;connectable=0;" parent="1" vertex="1">
          <mxGeometry x="-616.6666666666666" y="270.9302325581395" width="75.65217391304347" height="47.44186046511627" as="geometry" />
        </mxCell>
        <mxCell id="_CNHDKaY29BKCdkUsdy_-35" value="empIncharge" style="ellipse;whiteSpace=wrap;html=1;movable=0;resizable=0;rotatable=0;deletable=0;editable=0;locked=1;connectable=0;" parent="1" vertex="1">
          <mxGeometry x="-431.7391304347826" y="302.55813953488365" width="75.65217391304347" height="47.44186046511627" as="geometry" />
        </mxCell>
        <mxCell id="_CNHDKaY29BKCdkUsdy_-41" value="" style="endArrow=none;html=1;rounded=0;exitX=1;exitY=0;exitDx=0;exitDy=0;entryX=0;entryY=0.75;entryDx=0;entryDy=0;movable=0;resizable=0;rotatable=0;deletable=0;editable=0;locked=1;connectable=0;" parent="1" source="_CNHDKaY29BKCdkUsdy_-34" target="_CNHDKaY29BKCdkUsdy_-32" edge="1">
          <mxGeometry width="50" height="50" relative="1" as="geometry">
            <mxPoint x="-448.5507246376812" y="357.906976744186" as="sourcePoint" />
            <mxPoint x="-406.5217391304348" y="318.3720930232558" as="targetPoint" />
          </mxGeometry>
        </mxCell>
        <mxCell id="_CNHDKaY29BKCdkUsdy_-43" value="" style="endArrow=none;html=1;rounded=0;exitX=0.5;exitY=0;exitDx=0;exitDy=0;entryX=0.5;entryY=1;entryDx=0;entryDy=0;movable=0;resizable=0;rotatable=0;deletable=0;editable=0;locked=1;connectable=0;" parent="1" source="_CNHDKaY29BKCdkUsdy_-33" target="_CNHDKaY29BKCdkUsdy_-32" edge="1">
          <mxGeometry width="50" height="50" relative="1" as="geometry">
            <mxPoint x="-448.5507246376812" y="357.906976744186" as="sourcePoint" />
            <mxPoint x="-406.5217391304348" y="318.3720930232558" as="targetPoint" />
          </mxGeometry>
        </mxCell>
        <mxCell id="_CNHDKaY29BKCdkUsdy_-44" value="" style="endArrow=none;html=1;rounded=0;exitX=0.5;exitY=0;exitDx=0;exitDy=0;movable=0;resizable=0;rotatable=0;deletable=0;editable=0;locked=1;connectable=0;" parent="1" source="_CNHDKaY29BKCdkUsdy_-35" edge="1">
          <mxGeometry width="50" height="50" relative="1" as="geometry">
            <mxPoint x="-448.5507246376812" y="357.906976744186" as="sourcePoint" />
            <mxPoint x="-440.1449275362319" y="270.9302325581395" as="targetPoint" />
          </mxGeometry>
        </mxCell>
        <mxCell id="_CNHDKaY29BKCdkUsdy_-45" value="" style="endArrow=none;html=1;rounded=0;exitX=0;exitY=0.5;exitDx=0;exitDy=0;entryX=1;entryY=0.5;entryDx=0;entryDy=0;movable=0;resizable=0;rotatable=0;deletable=0;editable=0;locked=1;connectable=0;" parent="1" target="_CNHDKaY29BKCdkUsdy_-32" edge="1">
          <mxGeometry width="50" height="50" relative="1" as="geometry">
            <mxPoint x="-372.89855072463297" y="278.8372093023255" as="sourcePoint" />
            <mxPoint x="-406.5217391304348" y="318.3720930232558" as="targetPoint" />
          </mxGeometry>
        </mxCell>
        <mxCell id="_CNHDKaY29BKCdkUsdy_-46" value="manage" style="rhombus;whiteSpace=wrap;html=1;movable=0;resizable=0;rotatable=0;deletable=0;editable=0;locked=1;connectable=0;" parent="1" vertex="1">
          <mxGeometry x="-698.6231884057971" y="207.67441860465118" width="56.7391304347826" height="55.34883720930232" as="geometry" />
        </mxCell>
        <mxCell id="_CNHDKaY29BKCdkUsdy_-47" value="" style="edgeStyle=orthogonalEdgeStyle;fontSize=12;html=1;endArrow=ERoneToMany;rounded=0;exitX=1;exitY=0.5;exitDx=0;exitDy=0;entryX=0;entryY=0.5;entryDx=0;entryDy=0;movable=0;resizable=0;rotatable=0;deletable=0;editable=0;locked=1;connectable=0;" parent="1" source="_CNHDKaY29BKCdkUsdy_-46" target="_CNHDKaY29BKCdkUsdy_-32" edge="1">
          <mxGeometry width="100" height="100" relative="1" as="geometry">
            <mxPoint x="-406.5217391304348" y="215.5813953488372" as="sourcePoint" />
            <mxPoint x="-583.0434782608696" y="247.20930232558138" as="targetPoint" />
            <Array as="points">
              <mxPoint x="-583.0434782608696" y="235.34883720930233" />
              <mxPoint x="-583.0434782608696" y="247.20930232558138" />
            </Array>
          </mxGeometry>
        </mxCell>
        <mxCell id="_CNHDKaY29BKCdkUsdy_-53" value="" style="edgeStyle=orthogonalEdgeStyle;fontSize=12;html=1;endArrow=ERzeroToOne;endFill=1;rounded=0;exitX=0;exitY=0.5;exitDx=0;exitDy=0;movable=0;resizable=0;rotatable=0;deletable=0;editable=0;locked=1;connectable=0;" parent="1" source="_CNHDKaY29BKCdkUsdy_-46" target="_CNHDKaY29BKCdkUsdy_-1" edge="1">
          <mxGeometry width="100" height="100" relative="1" as="geometry">
            <mxPoint x="-406.5217391304348" y="278.8372093023256" as="sourcePoint" />
            <mxPoint x="-322.46376811594195" y="199.76744186046508" as="targetPoint" />
          </mxGeometry>
        </mxCell>
        <mxCell id="_CNHDKaY29BKCdkUsdy_-54" value="item" style="rounded=0;whiteSpace=wrap;html=1;movable=0;resizable=0;rotatable=0;deletable=0;editable=0;locked=1;connectable=0;" parent="1" vertex="1">
          <mxGeometry x="-372.8985507246377" y="81.16279069767442" width="100.8695652173913" height="47.44186046511627" as="geometry" />
        </mxCell>
        <mxCell id="_CNHDKaY29BKCdkUsdy_-55" value="itemName" style="ellipse;whiteSpace=wrap;html=1;movable=0;resizable=0;rotatable=0;deletable=0;editable=0;locked=1;connectable=0;" parent="1" vertex="1">
          <mxGeometry x="-305.65217391304344" y="10" width="75.65217391304347" height="47.44186046511627" as="geometry" />
        </mxCell>
        <mxCell id="_CNHDKaY29BKCdkUsdy_-56" value="&lt;u&gt;itemID&lt;/u&gt;" style="ellipse;whiteSpace=wrap;html=1;movable=0;resizable=0;rotatable=0;deletable=0;editable=0;locked=1;connectable=0;" parent="1" vertex="1">
          <mxGeometry x="-398.1159420289855" y="10" width="58.84057971014493" height="47.44186046511627" as="geometry" />
        </mxCell>
        <mxCell id="_CNHDKaY29BKCdkUsdy_-57" value="" style="endArrow=none;html=1;rounded=0;entryX=0.5;entryY=1;entryDx=0;entryDy=0;exitX=0.392;exitY=0.017;exitDx=0;exitDy=0;exitPerimeter=0;movable=0;resizable=0;rotatable=0;deletable=0;editable=0;locked=1;connectable=0;" parent="1" source="_CNHDKaY29BKCdkUsdy_-54" target="_CNHDKaY29BKCdkUsdy_-56" edge="1">
          <mxGeometry width="50" height="50" relative="1" as="geometry">
            <mxPoint x="-381.3043478260869" y="255.1162790697674" as="sourcePoint" />
            <mxPoint x="-339.27536231884056" y="215.5813953488372" as="targetPoint" />
          </mxGeometry>
        </mxCell>
        <mxCell id="_CNHDKaY29BKCdkUsdy_-61" value="" style="endArrow=none;html=1;rounded=0;entryX=0.5;entryY=1;entryDx=0;entryDy=0;movable=0;resizable=0;rotatable=0;deletable=0;editable=0;locked=1;connectable=0;" parent="1" source="_CNHDKaY29BKCdkUsdy_-54" target="_CNHDKaY29BKCdkUsdy_-55" edge="1">
          <mxGeometry width="50" height="50" relative="1" as="geometry">
            <mxPoint x="-381.3043478260869" y="255.1162790697674" as="sourcePoint" />
            <mxPoint x="-339.27536231884056" y="215.5813953488372" as="targetPoint" />
          </mxGeometry>
        </mxCell>
        <mxCell id="_CNHDKaY29BKCdkUsdy_-62" value="take care" style="rhombus;whiteSpace=wrap;html=1;movable=0;resizable=0;rotatable=0;deletable=0;editable=0;locked=1;connectable=0;" parent="1" vertex="1">
          <mxGeometry x="-515.7971014492755" y="96.9767441860465" width="56.7391304347826" height="55.34883720930232" as="geometry" />
        </mxCell>
        <mxCell id="_CNHDKaY29BKCdkUsdy_-64" value="" style="edgeStyle=orthogonalEdgeStyle;fontSize=12;html=1;endArrow=ERmandOne;rounded=0;exitX=0;exitY=0.5;exitDx=0;exitDy=0;entryX=1;entryY=0.75;entryDx=0;entryDy=0;movable=0;resizable=0;rotatable=0;deletable=0;editable=0;locked=1;connectable=0;" parent="1" source="_CNHDKaY29BKCdkUsdy_-62" target="_CNHDKaY29BKCdkUsdy_-1" edge="1">
          <mxGeometry width="100" height="100" relative="1" as="geometry">
            <mxPoint x="-406.5217391304348" y="278.8372093023256" as="sourcePoint" />
            <mxPoint x="-549.4202898550725" y="168.13953488372093" as="targetPoint" />
          </mxGeometry>
        </mxCell>
        <mxCell id="_CNHDKaY29BKCdkUsdy_-65" value="" style="edgeStyle=entityRelationEdgeStyle;fontSize=12;html=1;endArrow=ERoneToMany;rounded=0;exitX=1;exitY=0.5;exitDx=0;exitDy=0;entryX=0;entryY=0.5;entryDx=0;entryDy=0;movable=0;resizable=0;rotatable=0;deletable=0;editable=0;locked=1;connectable=0;" parent="1" source="_CNHDKaY29BKCdkUsdy_-62" target="_CNHDKaY29BKCdkUsdy_-54" edge="1">
          <mxGeometry width="100" height="100" relative="1" as="geometry">
            <mxPoint x="-406.5217391304348" y="278.8372093023256" as="sourcePoint" />
            <mxPoint x="-322.46376811594195" y="199.76744186046508" as="targetPoint" />
          </mxGeometry>
        </mxCell>
        <mxCell id="tt4px9agVQ_vMArug6hS-2" value="have" style="rhombus;whiteSpace=wrap;html=1;" parent="1" vertex="1">
          <mxGeometry x="-330.00000000000006" y="160.00000000000003" width="80" height="80" as="geometry" />
        </mxCell>
        <mxCell id="tt4px9agVQ_vMArug6hS-4" value="" style="edgeStyle=entityRelationEdgeStyle;fontSize=12;html=1;endArrow=ERzeroToMany;endFill=1;rounded=0;" parent="1" edge="1">
          <mxGeometry width="100" height="100" relative="1" as="geometry">
            <mxPoint x="-250" y="200" as="sourcePoint" />
            <mxPoint x="-170" y="200" as="targetPoint" />
          </mxGeometry>
        </mxCell>
        <mxCell id="tt4px9agVQ_vMArug6hS-6" value="" style="edgeStyle=orthogonalEdgeStyle;fontSize=12;html=1;endArrow=ERmandOne;rounded=0;exitX=0;exitY=0.5;exitDx=0;exitDy=0;" parent="1" source="tt4px9agVQ_vMArug6hS-2" edge="1">
          <mxGeometry width="100" height="100" relative="1" as="geometry">
            <mxPoint x="-350" y="250" as="sourcePoint" />
            <mxPoint x="-320" y="130" as="targetPoint" />
          </mxGeometry>
        </mxCell>
        <mxCell id="tt4px9agVQ_vMArug6hS-7" value="supplied by" style="rhombus;whiteSpace=wrap;html=1;" parent="1" vertex="1">
          <mxGeometry x="-130" y="313.43" width="80" height="60" as="geometry" />
        </mxCell>
        <mxCell id="tt4px9agVQ_vMArug6hS-9" value="" style="edgeStyle=orthogonalEdgeStyle;fontSize=12;html=1;endArrow=ERoneToMany;rounded=0;entryX=0.5;entryY=1;entryDx=0;entryDy=0;exitX=0.5;exitY=0;exitDx=0;exitDy=0;" parent="1" source="tt4px9agVQ_vMArug6hS-7" target="pVPWwBX25Paq45T395zx-3" edge="1">
          <mxGeometry width="100" height="100" relative="1" as="geometry">
            <mxPoint x="-350" y="420" as="sourcePoint" />
            <mxPoint x="-250" y="320" as="targetPoint" />
          </mxGeometry>
        </mxCell>
        <mxCell id="tt4px9agVQ_vMArug6hS-10" value="" style="edgeStyle=orthogonalEdgeStyle;fontSize=12;html=1;endArrow=ERmandOne;rounded=0;exitX=0.5;exitY=1;exitDx=0;exitDy=0;entryX=0.617;entryY=0.026;entryDx=0;entryDy=0;entryPerimeter=0;" parent="1" source="tt4px9agVQ_vMArug6hS-7" target="0UYlGUulBKd7WWGCyMar-33" edge="1">
          <mxGeometry width="100" height="100" relative="1" as="geometry">
            <mxPoint x="-80" y="320" as="sourcePoint" />
            <mxPoint x="-80" y="330" as="targetPoint" />
          </mxGeometry>
        </mxCell>
        <mxCell id="tt4px9agVQ_vMArug6hS-12" value="transaction" style="shape=ext;margin=3;double=1;whiteSpace=wrap;html=1;align=center;" parent="1" vertex="1">
          <mxGeometry x="-709.13" y="393.43" width="100" height="40" as="geometry" />
        </mxCell>
        <mxCell id="tt4px9agVQ_vMArug6hS-13" value="customer" style="ellipse;whiteSpace=wrap;html=1;" parent="1" vertex="1">
          <mxGeometry x="-795.9399999999999" y="330" width="70" height="40" as="geometry" />
        </mxCell>
        <mxCell id="tt4px9agVQ_vMArug6hS-15" value="sub-item" style="ellipse;whiteSpace=wrap;html=1;" parent="1" vertex="1">
          <mxGeometry x="-800" y="393.43" width="59.06" height="40" as="geometry" />
        </mxCell>
        <mxCell id="tt4px9agVQ_vMArug6hS-16" value="quantity" style="ellipse;whiteSpace=wrap;html=1;" parent="1" vertex="1">
          <mxGeometry x="-616.67" y="330" width="46.67" height="40" as="geometry" />
        </mxCell>
        <mxCell id="tt4px9agVQ_vMArug6hS-17" value="" style="endArrow=none;html=1;rounded=0;exitX=1;exitY=1;exitDx=0;exitDy=0;entryX=0;entryY=0;entryDx=0;entryDy=0;" parent="1" source="tt4px9agVQ_vMArug6hS-13" target="tt4px9agVQ_vMArug6hS-12" edge="1">
          <mxGeometry width="50" height="50" relative="1" as="geometry">
            <mxPoint x="-330" y="480" as="sourcePoint" />
            <mxPoint x="-280" y="430" as="targetPoint" />
          </mxGeometry>
        </mxCell>
        <mxCell id="tt4px9agVQ_vMArug6hS-18" value="" style="endArrow=none;html=1;rounded=0;exitX=0.5;exitY=1;exitDx=0;exitDy=0;entryX=0.5;entryY=0;entryDx=0;entryDy=0;" parent="1" target="tt4px9agVQ_vMArug6hS-12" edge="1">
          <mxGeometry width="50" height="50" relative="1" as="geometry">
            <mxPoint x="-668.2649999999999" y="373.43000000000006" as="sourcePoint" />
            <mxPoint x="-280" y="430" as="targetPoint" />
          </mxGeometry>
        </mxCell>
        <mxCell id="tt4px9agVQ_vMArug6hS-19" value="" style="endArrow=none;html=1;rounded=0;exitX=0.5;exitY=1;exitDx=0;exitDy=0;entryX=1;entryY=0;entryDx=0;entryDy=0;" parent="1" source="tt4px9agVQ_vMArug6hS-16" target="tt4px9agVQ_vMArug6hS-12" edge="1">
          <mxGeometry width="50" height="50" relative="1" as="geometry">
            <mxPoint x="-330" y="480" as="sourcePoint" />
            <mxPoint x="-280" y="430" as="targetPoint" />
          </mxGeometry>
        </mxCell>
        <mxCell id="tt4px9agVQ_vMArug6hS-20" value="" style="endArrow=none;html=1;rounded=0;exitX=1;exitY=0.5;exitDx=0;exitDy=0;" parent="1" source="tt4px9agVQ_vMArug6hS-15" target="tt4px9agVQ_vMArug6hS-12" edge="1">
          <mxGeometry width="50" height="50" relative="1" as="geometry">
            <mxPoint x="-330" y="480" as="sourcePoint" />
            <mxPoint x="-710" y="413" as="targetPoint" />
          </mxGeometry>
        </mxCell>
        <mxCell id="tt4px9agVQ_vMArug6hS-21" value="have" style="rhombus;whiteSpace=wrap;html=1;" parent="1" vertex="1">
          <mxGeometry x="-456.24" y="383.43" width="58.12" height="60" as="geometry" />
        </mxCell>
        <mxCell id="tt4px9agVQ_vMArug6hS-22" value="" style="group" parent="1" vertex="1" connectable="0">
          <mxGeometry x="-320" y="443.43" width="380" height="176.57" as="geometry" />
        </mxCell>
        <mxCell id="0UYlGUulBKd7WWGCyMar-33" value="manufactuer" style="rounded=0;whiteSpace=wrap;html=1;" parent="tt4px9agVQ_vMArug6hS-22" vertex="1">
          <mxGeometry x="160" width="120" height="60" as="geometry" />
        </mxCell>
        <mxCell id="0UYlGUulBKd7WWGCyMar-34" value="personContact" style="ellipse;whiteSpace=wrap;html=1;" parent="tt4px9agVQ_vMArug6hS-22" vertex="1">
          <mxGeometry y="10" width="120" height="40" as="geometry" />
        </mxCell>
        <mxCell id="0UYlGUulBKd7WWGCyMar-35" value="factuerPhone" style="ellipse;whiteSpace=wrap;html=1;" parent="tt4px9agVQ_vMArug6hS-22" vertex="1">
          <mxGeometry x="280" y="86.57" width="100" height="40" as="geometry" />
        </mxCell>
        <mxCell id="0UYlGUulBKd7WWGCyMar-36" value="factuerAddress" style="ellipse;whiteSpace=wrap;html=1;" parent="tt4px9agVQ_vMArug6hS-22" vertex="1">
          <mxGeometry x="210" y="131.57" width="100" height="40" as="geometry" />
        </mxCell>
        <mxCell id="0UYlGUulBKd7WWGCyMar-37" value="&lt;u&gt;factuerName&lt;/u&gt;" style="ellipse;whiteSpace=wrap;html=1;" parent="tt4px9agVQ_vMArug6hS-22" vertex="1">
          <mxGeometry x="110" y="126.57" width="90" height="50" as="geometry" />
        </mxCell>
        <mxCell id="0UYlGUulBKd7WWGCyMar-39" value="" style="endArrow=none;html=1;rounded=0;exitX=1;exitY=0.5;exitDx=0;exitDy=0;entryX=0;entryY=0.5;entryDx=0;entryDy=0;" parent="tt4px9agVQ_vMArug6hS-22" source="0UYlGUulBKd7WWGCyMar-34" target="0UYlGUulBKd7WWGCyMar-33" edge="1">
          <mxGeometry width="50" height="50" relative="1" as="geometry">
            <mxPoint x="20" y="7.5" as="sourcePoint" />
            <mxPoint x="70" y="-42.5" as="targetPoint" />
          </mxGeometry>
        </mxCell>
        <mxCell id="0UYlGUulBKd7WWGCyMar-40" value="" style="endArrow=none;html=1;rounded=0;exitX=0.589;exitY=0.02;exitDx=0;exitDy=0;exitPerimeter=0;" parent="tt4px9agVQ_vMArug6hS-22" source="0UYlGUulBKd7WWGCyMar-37" target="0UYlGUulBKd7WWGCyMar-33" edge="1">
          <mxGeometry width="50" height="50" relative="1" as="geometry">
            <mxPoint x="20" y="7.5" as="sourcePoint" />
            <mxPoint x="190" y="66.57" as="targetPoint" />
          </mxGeometry>
        </mxCell>
        <mxCell id="0UYlGUulBKd7WWGCyMar-41" value="" style="endArrow=none;html=1;rounded=0;entryX=0;entryY=0;entryDx=0;entryDy=0;" parent="tt4px9agVQ_vMArug6hS-22" source="0UYlGUulBKd7WWGCyMar-33" target="0UYlGUulBKd7WWGCyMar-36" edge="1">
          <mxGeometry width="50" height="50" relative="1" as="geometry">
            <mxPoint x="225" y="66.57" as="sourcePoint" />
            <mxPoint x="70" y="-42.5" as="targetPoint" />
          </mxGeometry>
        </mxCell>
        <mxCell id="0UYlGUulBKd7WWGCyMar-42" value="" style="endArrow=none;html=1;rounded=0;" parent="tt4px9agVQ_vMArug6hS-22" target="0UYlGUulBKd7WWGCyMar-35" edge="1">
          <mxGeometry width="50" height="50" relative="1" as="geometry">
            <mxPoint x="280" y="27.5" as="sourcePoint" />
            <mxPoint x="70" y="-42.5" as="targetPoint" />
          </mxGeometry>
        </mxCell>
        <mxCell id="tt4px9agVQ_vMArug6hS-23" value="created by" style="rhombus;whiteSpace=wrap;html=1;" parent="1" vertex="1">
          <mxGeometry x="-570" y="460" width="74.79" height="56.57" as="geometry" />
        </mxCell>
        <mxCell id="tt4px9agVQ_vMArug6hS-24" value="" style="edgeStyle=orthogonalEdgeStyle;fontSize=12;html=1;endArrow=ERoneToMany;rounded=0;exitX=0.5;exitY=0;exitDx=0;exitDy=0;entryX=0.5;entryY=1;entryDx=0;entryDy=0;" parent="1" source="tt4px9agVQ_vMArug6hS-23" target="tt4px9agVQ_vMArug6hS-12" edge="1">
          <mxGeometry width="100" height="100" relative="1" as="geometry">
            <mxPoint x="-350" y="560" as="sourcePoint" />
            <mxPoint x="-250" y="460" as="targetPoint" />
          </mxGeometry>
        </mxCell>
        <mxCell id="tt4px9agVQ_vMArug6hS-25" value="" style="edgeStyle=orthogonalEdgeStyle;fontSize=12;html=1;endArrow=ERmandOne;rounded=0;exitX=0.5;exitY=1;exitDx=0;exitDy=0;" parent="1" source="tt4px9agVQ_vMArug6hS-23" edge="1">
          <mxGeometry width="100" height="100" relative="1" as="geometry">
            <mxPoint x="-350" y="560" as="sourcePoint" />
            <mxPoint x="-520" y="620" as="targetPoint" />
          </mxGeometry>
        </mxCell>
        <mxCell id="tt4px9agVQ_vMArug6hS-26" value="" style="edgeStyle=orthogonalEdgeStyle;fontSize=12;html=1;endArrow=ERzeroToMany;endFill=1;rounded=0;entryX=1;entryY=0.5;entryDx=0;entryDy=0;" parent="1" target="tt4px9agVQ_vMArug6hS-12" edge="1">
          <mxGeometry width="100" height="100" relative="1" as="geometry">
            <mxPoint x="-450" y="413" as="sourcePoint" />
            <mxPoint x="-250" y="370" as="targetPoint" />
          </mxGeometry>
        </mxCell>
        <mxCell id="tt4px9agVQ_vMArug6hS-27" value="" style="edgeStyle=orthogonalEdgeStyle;fontSize=12;html=1;endArrow=ERoneToMany;rounded=0;exitX=1;exitY=0.5;exitDx=0;exitDy=0;entryX=0.25;entryY=1;entryDx=0;entryDy=0;" parent="1" source="tt4px9agVQ_vMArug6hS-21" target="pVPWwBX25Paq45T395zx-3" edge="1">
          <mxGeometry width="100" height="100" relative="1" as="geometry">
            <mxPoint x="-350" y="470" as="sourcePoint" />
            <mxPoint x="-250" y="370" as="targetPoint" />
          </mxGeometry>
        </mxCell>
        <mxCell id="JDbamWAEpP4i12hajiS4-1" value="aisleNumbers" style="ellipse;shape=doubleEllipse;margin=3;whiteSpace=wrap;html=1;align=center;" vertex="1" parent="1">
          <mxGeometry x="-372.9" y="263.02" width="100" height="40" as="geometry" />
        </mxCell>
        <mxCell id="JDbamWAEpP4i12hajiS4-3" value="&lt;span style=&quot;border-bottom: 1px dotted&quot;&gt;date and time&lt;/span&gt;" style="ellipse;whiteSpace=wrap;html=1;align=center;" vertex="1" parent="1">
          <mxGeometry x="-720.25" y="333.43" width="100" height="40" as="geometry" />
        </mxCell>
      </root>
    </mxGraphModel>
  </diagram>
</mxfile>
